<svg xmlns="http://www.w3.org/2000/svg" width="73px" height="30px" viewBox="0 0 73 30">
  <g fill="none" fill-rule="evenodd">
    <g fill="#FFFFFF">
      <g>
        <path d="M59.891527 0l.003053.0045084c-2.732332 0-3.16809 1.83834668-3.218183 2.73858473V22.673844l1.933172-.001082c1.548405.0315589 1.907138-.9610113 1.923835-1.520414v-.1511217c1.213372 1.2773209 2.880637 2.0076823 4.760125 2.0076823 4.096163 0 7.433744-3.5351295 7.433744-8.1674241 0-4.6627714-3.337581-8.19772052-7.433744-8.19772052-1.790254 0-3.398268.67030945-4.581656 1.8284282V0h-.820346zm.820346 14.8719613c0-2.4989179 1.790253-4.510207 4.004954-4.510207 2.215059 0 4.005313 1.9503354 4.005313 4.510207 0 2.4990984-1.790254 4.418957-4.005313 4.418957-2.214701 0-4.004954-1.9808123-4.004954-4.418957zm-21.079601-.0304768c0 4.6932482 3.51982 8.1980813 7.85855 8.1980813 4.338909 0 7.888893-3.5048331 7.888893-8.1980813s-3.549984-8.25885448-7.888893-8.25885448c-4.33873 0-7.85855 3.56560628-7.85855 8.25885448zm4.005133.0304768c0-2.7122556 1.729567-4.6016374 3.853417-4.6016374 2.124029 0 3.853417 1.8893818 3.853417 4.6016374 0 2.6513021-1.729388 4.4799106-3.853417 4.4799106-2.12385 0-3.853417-1.8286085-3.853417-4.4799106zM12.0154 8.80725673c-1.122702-1.37127606-2.852089-2.2246267-4.976118-2.2246267C2.761059 6.58263003 0 9.59965373 0 13.5919354v9.0817283h1.304941c.887496-.0546418 2.640224-.4968261 2.700192-3.0985357v-6.0744427c0-1.7674746 1.244075-2.9865469 3.034149-2.9865469 2.639865 0 2.912954 2.1027194 2.912954 2.9865469v9.1729784h1.306198c.884264-.0544615 2.626219-.4943014 2.698935-3.0696819v-6.1032965c0-1.7674746 1.274239-2.9865469 3.034149-2.9865469 2.639685 0 2.943298 2.1027194 2.943298 2.9865469v9.1729784h1.302786c.892523-.0550025 2.660333-.5002525 2.702167-3.1396523v-5.942076c0-4.11418888-2.578999-7.00930538-6.948251-7.00930538-2.03282 0-3.79273.85335065-4.976118 2.2246267zm23.469718-.0887254l-3.367386 9.37243027-3.663457-9.70424877c-.5539-1.53628363-2.001579-1.452247-2.001579-1.452247h-3.119433l6.208343 15.24814257c-.005387-.0165909-.008978-.0311982-.014723-.0483301.000359.001082.01167.0319195.023161.0629373.010593.0290341.021187.0580682.022982.0623963l-.03142-.0770035c.203784.6199957.143995.9657-.042014 1.5636947l-.135917.38628c-.721056 1.8024598-1.737107 2.2911708-3.900098 2.1690832v.0128039L26.964222 30c2.779014-.061134 4.869468-.9721922 6.266516-4.4620573l7.471628-18.60185383.000539-.0014427v-.00018033l-2.794455-.00180336h-.011491c-.150818 0-1.741776.04147732-2.411841 1.78586886z"/>
      </g>
    </g>
  </g>
</svg>
